<svg width="26" height="42" viewBox="0 0 26 42" fill="none" xmlns="http://www.w3.org/2000/svg">
<line x1="12.5" y1="0.000122092" x2="12.5" y2="42.0001" stroke="#D7E2EE"/>
<path d="M9.72585 30.6656L4.98752 25.8964C4.85363 25.7616 4.77254 25.5833 4.75901 25.3938C4.74547 25.2043 4.80039 25.0163 4.91377 24.8638L4.99023 24.7742L9.76048 20.0264C9.90251 19.8859 10.0923 19.8041 10.292 19.7975C10.4917 19.7908 10.6865 19.8598 10.8375 19.9905C10.9886 20.1213 11.0847 20.3042 11.1068 20.5028C11.1288 20.7014 11.0751 20.9009 10.9564 21.0616L10.88 21.1502L7.46599 24.5477L19.8366 24.5892C20.028 24.5901 20.2125 24.6601 20.3563 24.7863C20.5002 24.9125 20.5935 25.0865 20.6191 25.2761L20.6262 25.383C20.6255 25.5747 20.5555 25.7597 20.429 25.9037C20.3025 26.0477 20.1281 26.1411 19.9381 26.1665L19.8302 26.1736L7.4575 26.1331L10.8497 29.5471C10.9836 29.6819 11.0647 29.8602 11.0782 30.0497C11.0917 30.2392 11.0368 30.4272 10.9234 30.5797L10.8459 30.6683C10.7112 30.8022 10.5328 30.8832 10.3433 30.8968C10.1539 30.9103 9.96581 30.8554 9.81338 30.742L9.72585 30.6656ZM4.78691 15.3865L4.77986 15.2807C4.78025 15.0888 4.85018 14.9036 4.97669 14.7593C5.10319 14.6151 5.2777 14.5215 5.46788 14.4961L5.57578 14.4891L17.9464 14.5316L14.551 11.1144C14.4171 10.9797 14.3361 10.8013 14.3225 10.6119C14.309 10.4224 14.3639 10.2343 14.4773 10.0819L14.5537 9.9933C14.6886 9.85913 14.8671 9.77787 15.0568 9.76434C15.2466 9.7508 15.4348 9.80588 15.5874 9.91956L15.6759 9.99601L20.4196 14.7684C20.5534 14.9031 20.6345 15.0815 20.6481 15.2709C20.6616 15.4604 20.6067 15.6485 20.4933 15.8009L20.4158 15.8895L15.6403 20.6373C15.4981 20.7775 15.3082 20.8589 15.1087 20.8652C14.9091 20.8716 14.7145 20.8024 14.5637 20.6716C14.4128 20.5408 14.3169 20.3579 14.295 20.1595C14.273 19.961 14.3267 19.7616 14.4454 19.601L14.5218 19.5124L17.9369 16.1181L5.57046 16.0766C5.37845 16.0759 5.19322 16.0056 5.04913 15.8787C4.90504 15.7517 4.81187 15.5769 4.78691 15.3865Z" fill="#8D8989"/>
</svg>
